<svg id="Слой_1" data-name="Слой 1" xmlns="http://www.w3.org/2000/svg" viewBox="0 0 501.02 168.65"><defs><style>.cls-1{fill:#ec1c24;}.cls-2{fill:gray;}</style></defs><title>logo</title><path class="cls-1" d="M114.11,53.13l-19.62-30a3.87,3.87,0,0,1-.55-1.82V5.56a5.56,5.56,0,0,0-11.12,0V21.29a3.93,3.93,0,0,1-.54,1.83l-19.64,30a1.44,1.44,0,0,0,.1,1.59l5,7a.75.75,0,0,0,1.23,0L82.22,43.21c.33-.43.6-.34.6.21V66.68a1,1,0,0,1-1,1H79.45a1,1,0,0,0-1,1v4.11a1,1,0,0,0,1,1H97.32a1,1,0,0,0,1-1V68.66a1,1,0,0,0-1-1H94.94a1,1,0,0,1-1-1V43.44c0-.55.27-.64.6-.21l13.25,18.43a.75.75,0,0,0,1.23,0l5-7A1.44,1.44,0,0,0,114.11,53.13Z"/><path class="cls-1" d="M58.75,56,24.17,65.35a3.94,3.94,0,0,1-1.9,0l-15-4.87A5.56,5.56,0,0,0,3.84,71l15,4.86A4,4,0,0,1,20.37,77l22.48,28a1.4,1.4,0,0,0,1.54.4l8.17-2.59a.75.75,0,0,0,.35-1.18L39.47,83.22c-.31-.45-.14-.68.38-.51L62,89.9a1,1,0,0,1,.64,1.25l-.74,2.26a1,1,0,0,0,.63,1.25l3.91,1.27a1,1,0,0,0,1.25-.63l5.53-17a1,1,0,0,0-.64-1.25l-3.91-1.27a1,1,0,0,0-1.25.63l-.74,2.27a1,1,0,0,1-1.25.64L43.3,72.14c-.52-.17-.52-.46,0-.64l21.61-6.9a.75.75,0,0,0,.41-1.16l-5.09-6.9A1.39,1.39,0,0,0,58.75,56Z"/><path class="cls-1" d="M44.33,109.48l-1.75,35.79a3.86,3.86,0,0,1-.63,1.79l-9.26,12.75a5.56,5.56,0,1,0,9,6.54l9.25-12.73a4,4,0,0,1,1.51-1.16L86,139.73a1.43,1.43,0,0,0,.86-1.35l.06-8.56a.76.76,0,0,0-1-.71L64.3,136.24c-.52.16-.69-.08-.37-.52l13.68-18.81a1,1,0,0,1,1.38-.23l1.93,1.41a1,1,0,0,0,1.39-.22l2.41-3.33a1,1,0,0,0-.22-1.38L70,102.65a1,1,0,0,0-1.38.22l-2.42,3.32a1,1,0,0,0,.22,1.39l1.93,1.4a1,1,0,0,1,.22,1.39L55,129.17c-.32.44-.59.36-.6-.19l.11-22.69a.76.76,0,0,0-1-.75l-8.13,2.7A1.44,1.44,0,0,0,44.33,109.48Z"/><path class="cls-1" d="M90.78,139.73l33.5,12.72a4,4,0,0,1,1.51,1.16l9.27,12.75a5.56,5.56,0,1,0,9-6.54l-9.25-12.73a4,4,0,0,1-.63-1.79l-1.75-35.82a1.45,1.45,0,0,0-1-1.24l-8.13-2.7a.75.75,0,0,0-1,.75L122.4,129c0,.54-.28.63-.6.19l-13.67-18.82a1,1,0,0,1,.22-1.39l1.93-1.4a1,1,0,0,0,.21-1.38l-2.41-3.33a1,1,0,0,0-1.39-.22L92.23,113.17a1,1,0,0,0-.22,1.38l2.42,3.33a1,1,0,0,0,1.38.22l1.93-1.41a1,1,0,0,1,1.39.22l13.66,18.8c.32.45.16.68-.37.52l-21.54-7.12a.76.76,0,0,0-1,.7l.06,8.57A1.45,1.45,0,0,0,90.78,139.73Z"/><path class="cls-1" d="M133.9,104.9,156.36,77a3.88,3.88,0,0,1,1.56-1.09l15-4.87a5.56,5.56,0,1,0-3.43-10.57l-15,4.86a3.94,3.94,0,0,1-1.9,0L118,56a1.41,1.41,0,0,0-1.49.58l-5.08,6.89a.76.76,0,0,0,.41,1.17l21.64,6.91c.51.18.51.47,0,.64l-22.12,7.18a1,1,0,0,1-1.25-.63l-.74-2.27a1,1,0,0,0-1.25-.64l-3.91,1.27a1,1,0,0,0-.63,1.25l5.52,17a1,1,0,0,0,1.25.64l3.91-1.27a1,1,0,0,0,.64-1.25l-.74-2.27a1,1,0,0,1,.64-1.25l22.1-7.18c.52-.17.69.06.38.51l-13.43,18.29a.75.75,0,0,0,.35,1.18l8.17,2.59A1.42,1.42,0,0,0,133.9,104.9Z"/><path class="cls-2" d="M256.61,117.28c-2.54-3.34-6.55-3.56-8.43-3.57h-6.9a6.77,6.77,0,0,0-3.79,1,5.08,5.08,0,0,0-2.21,3.29l-5.48,31.13c0,.12,0,.24,0,.37a2.41,2.41,0,0,0,4.77.44l1.19-6.78h6.81c4.52,0,8.27-.91,11.22-4.46,2.69-3.23,3.55-7,4.17-10.49a29,29,0,0,0,.53-4.85A9.67,9.67,0,0,0,256.61,117.28Zm-3.78,10.92c-.61,3.5-1.39,6.05-2.75,7.68a7.86,7.86,0,0,1-6,2.69h-7.51l3.5-19.82c.08-.27,0-.13.15-.29a1.79,1.79,0,0,1,.24-.12s0,0,.07,0h7.81a6,6,0,0,1,3,.75,3.85,3.85,0,0,1,1.82,2.41,7.86,7.86,0,0,1,.21,1.94A29,29,0,0,1,252.83,128.2Z"/><path class="cls-2" d="M419.77,117.28c-2.54-3.34-6.56-3.56-8.44-3.57h-6.89a6.73,6.73,0,0,0-3.78,1,5,5,0,0,0-2.22,3.29L393,149.14c0,.12,0,.24,0,.37a2.4,2.4,0,0,0,4.76.44l1.2-6.78h6.81c4.52,0,8.28-.91,11.22-4.46,2.69-3.23,3.55-7,4.16-10.49a28,28,0,0,0,.54-4.85A9.73,9.73,0,0,0,419.77,117.28ZM416,128.2c-.61,3.5-1.39,6.05-2.75,7.68a7.86,7.86,0,0,1-6,2.69H399.7l3.5-19.82c.08-.27,0-.13.15-.29l.24-.12s.05,0,.07,0h7.81a6,6,0,0,1,3,.75,3.84,3.84,0,0,1,1.81,2.41,7.86,7.86,0,0,1,.21,1.94A27.92,27.92,0,0,1,416,128.2Z"/><path class="cls-2" d="M202.22,116.05a6.61,6.61,0,0,0-5.32-2.34H184.54a2.3,2.3,0,0,0,0,4.6h11.79a2.08,2.08,0,0,1,1.76.75,3.88,3.88,0,0,1,.34,1.76,4.25,4.25,0,0,1,0,.69l-.56,3.17H186.89a10.14,10.14,0,0,0-6,1.64c-2.61,1.93-3.42,4.84-3.83,7.13a17.37,17.37,0,0,0-.3,3.06,7,7,0,0,0,1.77,5.12c1.72,1.55,3.92,1.52,5.47,1.54h10.5a6.06,6.06,0,0,0,3.91-1,5.59,5.59,0,0,0,1.81-3.48l2.88-16.32a14.48,14.48,0,0,0,.24-2.43A6.42,6.42,0,0,0,202.22,116.05Zm-6.8,22.18a1.9,1.9,0,0,1,0,.19s0,0-.06.06a1.14,1.14,0,0,1-.59.09h-11a1.86,1.86,0,0,1-1.56-.7,3.22,3.22,0,0,1-.33-1.64,13.46,13.46,0,0,1,.25-2.3,7.3,7.3,0,0,1,1.34-3.66,3.27,3.27,0,0,1,2.43-1H197Z"/><path class="cls-2" d="M446.81,115.45a14,14,0,0,0-7.29-1.74c-2.82,0-6.48.36-9.62,2.63-4.35,3.19-5.39,8.19-6.07,12a33.87,33.87,0,0,0-.69,5.87,9.66,9.66,0,0,0,1.24,5.07,8.2,8.2,0,0,0,7.44,3.88h12.46a2.31,2.31,0,0,0,0-4.61H432.35a3.89,3.89,0,0,1-3.08-1.19,4.46,4.46,0,0,1-1.07-2.57,7.06,7.06,0,0,1,0-.72,23.9,23.9,0,0,1,.37-3.63h15.72a6.23,6.23,0,0,0,3.69-1.05,6.74,6.74,0,0,0,2.17-4.23,14.73,14.73,0,0,0,.23-2.46A8.39,8.39,0,0,0,446.81,115.45ZM445.06,125a2.7,2.7,0,0,1-.21.73c-.15.21-.08.15-.17.17H429.39a11,11,0,0,1,1.95-4.68c2.2-2.8,4.54-2.84,7.28-2.87a13.77,13.77,0,0,1,3.37.28,3.85,3.85,0,0,1,2.36,1.6,5.47,5.47,0,0,1,.86,3.15A10,10,0,0,1,445.06,125Z"/><path class="cls-2" d="M228.77,117.14c-2.11-2.79-5.17-3.44-8-3.42H210.3a2.3,2.3,0,0,0,0,4.6h10a7.67,7.67,0,0,1,2.76.4,3.33,3.33,0,0,1,2,2,8.33,8.33,0,0,1,.44,3,13.14,13.14,0,0,1-.1,1.67H208.6a2.3,2.3,0,1,0,0,4.6h15.94a24.53,24.53,0,0,1-1.72,5.08c-1.63,3-4.39,3.47-6.55,3.49H205.55a2.3,2.3,0,0,0,0,4.6h9.09c2.92,0,7.08-.19,10.56-3.72,2.77-2.85,4-6.78,4.84-11.44a28.84,28.84,0,0,0,.49-4.86A9.43,9.43,0,0,0,228.77,117.14Z"/><path class="cls-2" d="M315.25,117.14c-2.11-2.79-5.16-3.44-8-3.42H296.78a2.3,2.3,0,0,0,0,4.6h10a7.61,7.61,0,0,1,2.76.4,3.33,3.33,0,0,1,2,2,8.54,8.54,0,0,1,.45,3,15.28,15.28,0,0,1-.1,1.67H295.08a2.3,2.3,0,1,0,0,4.6H311a25.09,25.09,0,0,1-1.73,5.08c-1.63,3-4.38,3.47-6.55,3.49H292a2.3,2.3,0,0,0,0,4.6h9.09c2.93,0,7.08-.19,10.57-3.72,2.76-2.85,4-6.78,4.83-11.44a28,28,0,0,0,.5-4.86A9.43,9.43,0,0,0,315.25,117.14Z"/><path class="cls-2" d="M289.86,124a11,11,0,0,0-2.16-7.19c-2.65-3.08-6.89-3.35-10.39-3.37s-7.83.34-11.31,3.24h0c-3.85,3.25-5.11,8.33-5.67,11.45a25.69,25.69,0,0,0-.44,4.58c0,3.46.89,5.81,2.12,7.31,3,3.43,7.93,3.46,10.38,3.49s7.45-.12,11.33-3.35c2.3-1.94,4.64-5.55,5.71-11.65A25.68,25.68,0,0,0,289.86,124Zm-5.5,4.39c-.37,2.21-1.09,6.08-3.42,8.18s-5.39,2.35-8.12,2.34-5.77-.35-7.05-2.18h0a6.26,6.26,0,0,1-.95-3.73,25,25,0,0,1,.48-4.24c.4-2.35,1.22-6.47,3.45-8.5s5.61-2.24,8.14-2.23,5.94.34,7.11,2.08a6.43,6.43,0,0,1,.87,3.69A26,26,0,0,1,284.36,128.36Z"/><path class="cls-2" d="M330,127.11l11.46-9.28a2.24,2.24,0,1,0-2.61-3.63l-11.82,9.43a15.65,15.65,0,0,0-1.76,1.67l1.53-8.67a3,3,0,0,0,.06-.52,2.4,2.4,0,0,0-4.76-.44l-4.36,24.69a2.71,2.71,0,0,0,0,.41,2.4,2.4,0,0,0,4.76.45l1.88-10.65a6.53,6.53,0,0,0,1,1.43l9,10.17a2.51,2.51,0,1,0,3.87-3.2l-9-10.17a2.22,2.22,0,0,1-.2-.35.8.8,0,0,1-.08-.21s0,0,0-.05l.05-.08A6.07,6.07,0,0,1,330,127.11Z"/><path class="cls-2" d="M393.63,115.51a3.65,3.65,0,0,0-3.55-1.79H375.16a4.82,4.82,0,0,0-3.82,1.57,6.87,6.87,0,0,0-1.29,3.29l-3.84,21.78a2.58,2.58,0,0,0,0,.4,2.4,2.4,0,0,0,4.76.44L374.87,119a3.08,3.08,0,0,1,.14-.58v0h.05l.11,0H389a2.19,2.19,0,0,1,0,.27l-3.83,21.82a2.2,2.2,0,0,0,0,.36,2.4,2.4,0,0,0,4.77.4L393.8,119a10.45,10.45,0,0,0,.18-1.72A3.94,3.94,0,0,0,393.63,115.51Z"/><path class="cls-2" d="M367.13,116a2.3,2.3,0,0,0-2.3-2.3h-7.78a14.56,14.56,0,0,0-9.72,3.29c-3.74,3.25-4.73,7.88-5.39,11.6a29.37,29.37,0,0,0-.57,5.14,9.64,9.64,0,0,0,1.47,5.48c1.43,2.19,4.15,3.94,8.25,3.94h10a2.3,2.3,0,1,0,0-4.6h-8.14a10.61,10.61,0,0,1-3.81-.6,3.81,3.81,0,0,1-2.45-2.65,7.93,7.93,0,0,1-.16-1.78,26.21,26.21,0,0,1,.39-4.19,44.07,44.07,0,0,1,1.57-6.15,8.1,8.1,0,0,1,7.85-4.89h8.51A2.3,2.3,0,0,0,367.13,116Z"/><path class="cls-2" d="M501,116a2.29,2.29,0,0,0-2.29-2.3H491a14.59,14.59,0,0,0-9.73,3.29c-3.74,3.25-4.72,7.88-5.39,11.6a30.29,30.29,0,0,0-.56,5.14,9.64,9.64,0,0,0,1.47,5.48c1.42,2.19,4.14,3.94,8.25,3.94h10a2.3,2.3,0,1,0,0-4.6h-8.13A10.63,10.63,0,0,1,483,138a3.78,3.78,0,0,1-2.44-2.65,7.93,7.93,0,0,1-.16-1.78,27.49,27.49,0,0,1,.38-4.19,42.77,42.77,0,0,1,1.58-6.15,8.09,8.09,0,0,1,7.85-4.89h8.51A2.29,2.29,0,0,0,501,116Z"/><path class="cls-2" d="M477,116a2.3,2.3,0,0,0-2.3-2.3h-7.78a14.57,14.57,0,0,0-9.73,3.29c-3.74,3.25-4.72,7.88-5.38,11.6a29.37,29.37,0,0,0-.57,5.14,9.64,9.64,0,0,0,1.47,5.48c1.42,2.19,4.15,3.94,8.25,3.94h10a2.3,2.3,0,1,0,0-4.6h-8.13a10.63,10.63,0,0,1-3.82-.6,3.82,3.82,0,0,1-2.44-2.65,7.93,7.93,0,0,1-.16-1.78,26.21,26.21,0,0,1,.39-4.19,42.71,42.71,0,0,1,1.57-6.15,8.09,8.09,0,0,1,7.85-4.89h8.51A2.3,2.3,0,0,0,477,116Z"/></svg>